# xmcd CD database file
#
# Track frame offsets:
#	150
#	22615
#	38462
#	53687
#	69665
#	89227
#	103980
#	122115
#	141385
#	165057
#
# Disc length: 2306 seconds
#
# Revision: 0
# Processed by: cddbd v1.4PL0 Copyright (c) Steve Scherf et al.
# Submitted via: CDex 1.51
#
DISCID=7e09000a
DTITLE=Ring - Colony
DYEAR=1995
DGENRE=New Age
TTITLE0=Mushhead
TTITLE1=Residence
TTITLE2=Wept away
TTITLE3=Said and done
TTITLE4=Lost in you
TTITLE5=Open wide
TTITLE6=Lover of years
TTITLE7=Jerome
TTITLE8=End of greenfields
TTITLE9=Colony
EXTD=YEAR: 1995
EXTT0=
EXTT1=
EXTT2=
EXTT3=
EXTT4=
EXTT5=
EXTT6=
EXTT7=
EXTT8=
EXTT9=
PLAYORDER=
